<svg id="visual" viewBox="0 0 900 600" width="900" height="600" xmlns="http://www.w3.org/2000/svg" xmlns:xlink="http://www.w3.org/1999/xlink" version="1.1"><path d="M0 336L21.5 332.7C43 329.3 86 322.7 128.8 339.5C171.7 356.3 214.3 396.7 257.2 410.7C300 424.7 343 412.3 385.8 393.8C428.7 375.3 471.3 350.7 514.2 345.8C557 341 600 356 642.8 372.5C685.7 389 728.3 407 771.2 407.3C814 407.7 857 390.3 878.5 381.7L900 373L900 601L878.5 601C857 601 814 601 771.2 601C728.3 601 685.7 601 642.8 601C600 601 557 601 514.2 601C471.3 601 428.7 601 385.8 601C343 601 300 601 257.2 601C214.3 601 171.7 601 128.8 601C86 601 43 601 21.5 601L0 601Z" fill="#004d00"></path><path d="M0 427L21.5 426.2C43 425.3 86 423.7 128.8 435.3C171.7 447 214.3 472 257.2 467.3C300 462.7 343 428.3 385.8 422.5C428.7 416.7 471.3 439.3 514.2 453.5C557 467.7 600 473.3 642.8 465.8C685.7 458.3 728.3 437.7 771.2 429.7C814 421.7 857 426.3 878.5 428.7L900 431L900 601L878.5 601C857 601 814 601 771.2 601C728.3 601 685.7 601 642.8 601C600 601 557 601 514.2 601C471.3 601 428.7 601 385.8 601C343 601 300 601 257.2 601C214.3 601 171.7 601 128.8 601C86 601 43 601 21.5 601L0 601Z" fill="#1b6619"></path><path d="M0 522L21.5 516.2C43 510.3 86 498.7 128.8 502.3C171.7 506 214.3 525 257.2 535.7C300 546.3 343 548.7 385.8 537.8C428.7 527 471.3 503 514.2 500.3C557 497.7 600 516.3 642.8 524C685.7 531.7 728.3 528.3 771.2 527.5C814 526.7 857 528.3 878.5 529.2L900 530L900 601L878.5 601C857 601 814 601 771.2 601C728.3 601 685.7 601 642.8 601C600 601 557 601 514.2 601C471.3 601 428.7 601 385.8 601C343 601 300 601 257.2 601C214.3 601 171.7 601 128.8 601C86 601 43 601 21.5 601L0 601Z" fill="#308130"></path></svg>