<?xml version="1.0" standalone="no"?><svg xmlns="http://www.w3.org/2000/svg" viewBox="0 0 1440 320"><path fill="#000" fill-opacity="0.20" d="M0,0L34.3,37.3C68.6,75,137,149,206,186.7C274.3,224,343,224,411,202.7C480,181,549,139,617,154.7C685.7,171,754,245,823,250.7C891.4,256,960,192,1029,181.3C1097.1,171,1166,213,1234,224C1302.9,235,1371,213,1406,202.7L1440,192L1440,320L1405.7,320C1371.4,320,1303,320,1234,320C1165.7,320,1097,320,1029,320C960,320,891,320,823,320C754.3,320,686,320,617,320C548.6,320,480,320,411,320C342.9,320,274,320,206,320C137.1,320,69,320,34,320L0,320Z"></path></svg>